PathFileType        4      (X/Y/Z)      C:\Users\pc\Desktop\IMUTRC\Sujet_07\Sujet_07_velo_80.trc         
DataRate	CameraRate	NumFrames	NumMarkers	Units	OrigDataRate	OrigDataStartFrame	OrigNumFrames
60.0	60.0	4	64	mm	60.0	703	936
Frame#	Time	pHipOrigin			pRightASI			pLeftASI			pRightCSI			pLeftCSI			pRightIschialTub			pLeftIschialTub			pSacrum			pL5SpinalProcess			pL3SpinalProcess			pT12SpinalProcess			pIJ			pT4SpinalProcess			pT8SpinalProcess			pPX			pC7SpinalProcess			pTopOfHead			pRightAuricularis			pLeftAuricularis			pBackOfHead			pRightAcromion			pLeftAcromion			pRightArmLatEpicondyle			pRightArmMedEpicondyle			pLeftArmLatEpicondyle			pLeftArmMedEpicondyle			pRightUlnarStyloid			pRightRadialStyloid			pRightOlecranon			pLeftUlnarStyloid			pLeftRadialStyloid			pLeftOlecranon			pRightTopOfHand			pRightPinky			pRightBallHand			pLeftTopOfHand			pLeftPinky			pLeftBallHand			pRightGreaterTrochanter			pRightKneeLatEpicondyle			pRightKneeMedEpicondyle			pRightPatella			pLeftGreaterTrochanter			pLeftKneeLatEpicondyle			pLeftKneeMedEpicondyle			pLeftPatella			pRightTibialTub			pRightLatMalleolus			pRightMedMalleolus			pLeftTibialTub			pLeftLatMalleolus			pLeftMedMalleolus			pRightHeelFoot			pRightFirstMetatarsal			pRightFifthMetatarsal			pRightPivotFoot			pRightHeelCenter			pRightToe			pLeftHeelFoot			pLeftFirstMetatarsal			pLeftFifthMetatarsal			pLeftPivotFoot			pLeftHeelCenter			pLeftToe			
		X1	Y1	Z1	X2	Y2	Z2	X3	Y3	Z3	X4	Y4	Z4	X5	Y5	Z5	X6	Y6	Z6	X7	Y7	Z7	X8	Y8	Z8	X9	Y9	Z9	X10	Y10	Z10	X11	Y11	Z11	X12	Y12	Z12	X13	Y13	Z13	X14	Y14	Z14	X15	Y15	Z15	X16	Y16	Z16	X17	Y17	Z17	X18	Y18	Z18	X19	Y19	Z19	X20	Y20	Z20	X21	Y21	Z21	X22	Y22	Z22	X23	Y23	Z23	X24	Y24	Z24	X25	Y25	Z25	X26	Y26	Z26	X27	Y27	Z27	X28	Y28	Z28	X29	Y29	Z29	X30	Y30	Z30	X31	Y31	Z31	X32	Y32	Z32	X33	Y33	Z33	X34	Y34	Z34	X35	Y35	Z35	X36	Y36	Z36	X37	Y37	Z37	X38	Y38	Z38	X39	Y39	Z39	X40	Y40	Z40	X41	Y41	Z41	X42	Y42	Z42	X43	Y43	Z43	X44	Y44	Z44	X45	Y45	Z45	X46	Y46	Z46	X47	Y47	Z47	X48	Y48	Z48	X49	Y49	Z49	X50	Y50	Z50	X51	Y51	Z51	X52	Y52	Z52	X53	Y53	Z53	X54	Y54	Z54	X55	Y55	Z55	X56	Y56	Z56	X57	Y57	Z57	X58	Y58	Z58	X59	Y59	Z59	X60	Y60	Z60	X61	Y61	Z61	X62	Y62	Z62	X63	Y63	Z63	X64	Y64	Z64	
703	11.7	0.0	1249.97763	7.653905517926474E-14	145.69240316654697	1309.60646	105.7233554387319	58.54757225002707	1323.93817	-164.52630979685657	125.49815250246705	1393.81454	90.20566360969987	53.8071350771799	1405.6215	-132.1076517633971	-56.37496705438008	1216.11618	77.89178721320798	-92.18831774378114	1222.05679	-33.246309803467504	-51.79436010469101	1298.61634	19.3142832468434	24.742092020677283	1379.33432	-2.606960465357491	110.6054909484519	1464.35923	-25.831429918818227	191.16693333556827	1539.95344	-47.743961264336725	452.3305138280177	1514.92864	-113.21063176386339	361.75800543300625	1642.57739	-93.56242545474483	279.30903227800434	1603.81494	-71.79645491839902	341.9490381266524	1457.08199	-83.90580763466915	416.27642657221804	1666.41407	-106.15926081629677	689.2683745844051	1646.51304	-143.10326483060646	594.3300408167629	1627.80014	-63.467387159118076	580.9747874820799	1648.29523	-206.2268098354936	583.6679891567521	1694.1864	-126.38647197105543	452.73648157179883	1608.41891	79.0073714776736	377.2908976288966	1622.15656	-284.72392392651693	479.0029967634441	1320.67084	67.07685262796426	443.46810147907206	1317.99757	13.377356702136263	390.1175117642824	1319.70549	-275.6035712980866	358.46850886213963	1316.28964	-219.44925026268035	544.3980047316879	1069.38323	42.32439626559435	594.6803711130991	1089.35852	39.886422968196776	436.02935143070783	1313.61637	43.637929730708656	441.66238916825023	1063.6654	-257.50547783166775	490.68737217508396	1080.29909	-273.3596992397047	349.78984946989283	1314.06191	-241.694671253724	734.5226101056704	1038.04654	143.86133998887405	656.5219047263816	1013.24451	95.39780473201319	603.194900279998	1050.07626	49.346785848601066	578.5152182144918	1000.69498	-413.0067308992962	523.9117769231102	990.67021	-335.8070563145188	493.2055579793696	1038.71485	-280.39460499562597	50.58336497784227	1220.12609	169.91228184057715	214.5411401859197	807.6253	157.56326488423008	207.7826188115855	800.34806	72.28898728861708	253.91183618404042	824.55603	106.89601908613626	-32.02488318740019	1247.89842	-175.9178552129645	335.06268075061485	1042.57625	-318.36488678029554	369.31810362482736	1035.00198	-240.0234996331887	372.28989446989283	1082.52682	-280.6658923663101	260.47915220170984	759.80343	117.20429407417201	107.20532004883046	377.74825	162.73143883374328	111.95381726245758	373.66408	97.4770004001419	382.6413523502971	989.40783	-290.72384334757953	135.41881659390964	660.59532	-243.01763064150296	159.85115927158972	657.55076	-182.26618950717832	34.87233328143153	322.50062	121.82742697808554	183.66171487980915	243.11928	105.00819842294169	173.2165244805526	245.42126	183.69397888918465	198.1874836909285	233.46579	146.2350888230836	72.37210972586848	307.50059	127.2720689038461	277.75102678560194	187.9459	158.13024975291333	86.66486983009327	593.02093	-192.88031777706473	243.71550274866823	540.07529	-228.16687335288586	210.96954880623213	548.76342	-300.0633173822762	247.0917988723332	537.55053	-272.77722978047143	122.7742221027443	585.52092	-210.27495054169904	325.50159576746626	508.44156	-312.0521418139984	
704	11.717	0.0	1249.97763	7.653905517926474E-14	144.87823764086087	1310.05201	106.53947149499123	59.697856966540456	1323.49263	-164.2909213690277	124.74101854406494	1394.18583	90.62597809378809	54.60869217503712	1405.32447	-132.15934938205322	-56.88943810575226	1216.33896	77.59475721320798	-91.95559879026618	1221.90827	-33.79791085483969	-51.994569063093124	1298.61634	18.769975334926308	24.687738587961256	1379.33432	-2.809837558327554	110.72415542765297	1464.28497	-25.59142282584816	191.4685783404554	1539.80492	-47.226825738650625	452.86683697724703	1514.40883	-111.61481070760398	362.4156575357506	1642.20611	-92.32527231040258	279.8208388550626	1603.51791	-70.90074991351189	342.18371627099464	1456.78496	-82.82712210409589	417.0527481541635	1665.96853	-104.68210923923847	690.0075661663506	1646.14176	-141.56180220706312	595.1607244916784	1627.20608	-61.787353489089824	581.6397240640254	1647.92394	-204.55673377923424	584.3972367851826	1693.74086	-124.67926591479609	452.57268366965616	1607.89911	80.62771776635815	378.4086673502971	1622.23082	-283.3926178751448	479.97758043347244	1320.52232	67.46804419524821	444.83119858181647	1318.07182	13.392643264533115	391.0549617740568	1319.63123	-275.14808234457155	359.443088871914	1316.14113	-219.0580723556504	546.0156778858045	1069.45749	43.08686417262425	596.2635787415297	1089.50703	40.11452691682465	437.19685091968324	1313.46785	44.14050129799261	443.1812857501957	1063.6654	-257.3145038830399	492.1691387570294	1080.44761	-273.10441424459185	350.7916105261522	1313.83914	-241.2020523002091	736.2715611668168	1038.19505	144.09938789101682	658.233734447782	1013.31877	95.70016868064096	604.7681639549135	1050.15052	49.74063322994488	580.0069424102063	1000.99201	-412.91719299715334	525.4306735050557	990.89298	-335.6160823658909	494.75163560780004	1038.86337	-280.1021900005132	49.504684447269035	1220.05183	170.14695132466537	222.36907831341054	811.26393	155.7375783289104	216.8178595626197	804.72926	70.30289124920917	262.0685967026494	829.60554	105.68889544273364	-31.554821615229073	1245.6707	-175.98944573865057	333.9580544206432	1034.85346	-314.37239785340626	368.24066334134073	1028.76434	-235.92957832006843	371.53932104695116	1075.39809	-277.5836810629642	266.3525927007702	761.88264	115.79359671456672	92.27479036113277	389.25817	164.8294548367512	96.62748600258874	384.43143	99.51798483586585	384.136972607158	983.91277	-287.3737336212918	150.44954208100575	644.03588	-249.0020708597739	174.30043818651473	640.91707	-187.98611472056214	18.637674928592617	335.49569	125.14464008872498	165.5096888985398	252.54999	108.67608968281054	155.62605716442448	256.41138	187.42884200959838	180.0997774163982	243.34205	149.94011508295242	55.805964507597544	319.67883	130.56939410745562	258.71323975296036	196.18849	162.14420415712442	104.35553794561984	573.56545	-200.50161377299557	263.7193487250504	528.19408	-236.08181093076215	231.00057216884534	537.17924	-307.8768275739214	267.4271367141474	526.9317	-280.6722881115718	140.86069679044203	568.07039	-217.83922363059997	347.24710466553984	502.05541	-320.1619680619029	
705	11.733	0.0	1249.97763	7.653905517926474E-14	143.67554502220472	1310.86884	107.73149621639176	60.97675511576985	1323.04708	-163.98127794119884	123.43955435323767	1394.92841	91.24650019653245	55.41023561264029	1404.95318	-132.21104334045535	-57.55970363632551	1216.48747	77.12203116672295	-91.57436483675122	1221.46273	-34.606747431897965	-52.28626511446531	1298.54208	18.087087716270148	24.430503062275164	1379.40857	-2.9583525583275536	110.57564042765297	1464.43349	-25.33418730016206	191.49309491262653	1539.95344	-46.52670968727845	453.1061251264765	1514.1118	-109.50450993971846	362.813414638495	1642.05759	-90.63796782142724	280.0455680458899	1603.51791	-69.65631228996858	342.2227918015679	1456.63644	-81.26114290838146	417.53204839636294	1665.74575	-102.69048161080805	690.5412248412661	1645.91898	-139.3673061459167	595.7315081665938	1626.83479	-59.65715981417428	582.1362527389408	1647.70117	-202.2979266716027	584.9580765065832	1693.44383	-122.3833288071646	451.84468128831224	1607.45356	82.7797548788768	379.46940550441366	1622.45359	-281.66551025160146	480.9521604432467	1320.59658	67.85922210227815	446.4614938240159	1318.44311	13.390689073705824	391.97251887680113	1319.77975	-274.3610978653706	360.3606459746584	1316.14113	-218.27108787644943	547.7619681328911	1069.90303	43.923600739908245	597.9382698026761	1090.02683	40.48119691193748	438.46580011539766	1313.69063	44.61589681879155	444.7545494251112	1063.96243	-256.9206565016961	493.6780913854599	1080.89315	-272.747696863248	351.67203762889653	1313.83914	-240.350756774523	738.1391853674183	1038.71485	144.57744788612968	660.1013636483837	1013.83857	96.17822001549976	606.5986581555151	1050.67032	50.28300427154276	581.5802010851219	1001.43756	-412.5233369555556	527.0410671799712	991.26427	-335.2865460310322	496.2977132362305	1039.23466	-279.80977500540024	48.12168077724069	1220.12609	170.4631639482087	232.7846495999051	816.61047	154.0339396708463	228.77223399834364	810.96689	68.45872735383274	272.6644877007702	836.66001	104.86107388252677	-31.121885043057958	1242.84891	-175.99673387810566	331.5963733790453	1024.01186	-309.3907662980866	366.10904043919794	1019.77917	-230.9008591509797	369.7173465726372	1065.15055	-273.8338687033589	274.6379703123493	765.59552	114.66074173141813	78.62316382266447	404.48097	167.23710560733397	82.67153632466531	398.76314	102.0071787459037	384.6155539056168	975.44741	-283.1531407457748	165.2972920424158	625.17446	-255.2636481710149	188.1609997103216	621.90713	-193.87445150122988	3.5161762922670974	351.98087	128.7615440134243	148.2951302475528	265.32229	112.79947989619434	138.94585381158555	270.59458	191.5177616972961	162.84808510515722	256.33712	154.12780268256725	40.31584034558592	335.42143	134.23071617161003	240.41004295763113	207.47564	166.6680109475665	121.1631231443422	552.17927	-208.37552528972532	282.4489078968363	513.49108	-243.274799019663	250.00726843360133	522.47625	-315.25279118850835	286.5524974581045	513.11979	-287.8082446331887	157.95269490108146	548.31788	-225.46319276109872	367.5128061724953	491.95638	-326.8967927229749	
706	11.75	0.0	1249.97763	7.653905517926474E-14	142.23285397083256	1311.90845	109.04219041699335	62.44857774420031	1322.75005	-163.56024951336997	121.86097038994838	1395.74524	92.0500078249629	56.174662710497515	1404.7304	-132.1984299126265	-58.229969166898755	1216.48747	76.64930512023791	-91.05456483675121	1220.94293	-35.50706744167226	-52.70658825880756	1298.39357	17.329948757868035	23.97038544361901	1379.55709	-3.0525054653574886	110.14998833468292	1464.65626	-24.89397624878988	191.2033493918276	1540.25047	-45.579315723989176	453.1869543221909	1514.1118	-106.97123021343073	363.02552174123934	1642.20611	-88.62910810002667	280.0203325299781	1603.81494	-68.12746309425415	342.04904994591016	1456.78496	-79.47505318698094	417.7885649783084	1665.74575	-100.3130013637214	690.8149785161816	1645.91898	-136.72264141962899	596.0967452742254	1626.68627	-56.87392904140155	582.3728764138564	1647.77542	-199.58895089883003	585.2218812279837	1693.36957	-119.57291198790683	450.7553242002293	1607.23079	85.40913670302167	380.3345547050152	1622.89914	-279.45111262317096	481.446738587589	1320.89361	68.48774762796427	447.6117698802753	1319.03717	13.62607250153473	392.8602341190006	1320.15104	-273.0768657675133	361.3126636030888	1316.3639	-216.9497307785921	549.3796412870076	1070.57135	44.686068646938146	599.4843610913606	1090.76941	40.77360824679628	439.291873785426	1313.98766	45.264315251507604	446.1249310070566	1064.40797	-256.4724470273822	495.02129558117434	1081.48721	-272.40091477516506	352.661185257327	1314.13617	-239.0937107231508	739.8510150888188	1039.60595	144.87981183475748	661.8032357560153	1014.6554	96.64633105709768	608.1990942166615	1051.4129	50.778287699371624	582.8319181878662	1002.10587	-412.31513457421175	528.3570903292004	991.85833	-335.0412049894342	497.6409224319449	1039.75446	-279.46300157757145	47.00586524666744	1220.42312	170.76215313903595	245.9264287521424	823.81345	152.36087047732184	243.1213121138702	818.98671	66.62523501596603	285.66502767195453	845.79369	103.87815812660546	-30.523210038170788	1240.10138	-175.99406940379177	328.0545794206432	1011.6851	-304.14727921219355	362.6315488670268	1008.93757	-225.62024706508674	366.9824250004661	1053.04657	-269.8394255856424	285.1251371245299	771.61038	113.42715598527111	68.44225702025813	423.26813	170.01943345622536	72.0205816103419	416.58495	104.86109346022711	383.4810770548462	965.34838	-278.66340920022935	178.53198385459643	605.86749	-261.2560868122276	200.61137151761505	602.22887	-199.54800804458534	-8.466089473428504	372.4017	132.7332371094023	133.38377952314434	281.06489	116.79495696034873	124.79893384528839	287.5253	195.5258658495334	148.0010404272338	272.15398	158.16041840697568	27.836331961234166	354.7284	138.17255874678906	224.03415774424732	221.06478	170.67539615606313	135.67475891492495	530.94161	-215.68861574530857	298.3455015282747	497.0059	-249.27380685659014	266.44818363721083	505.99107	-321.45201164409167	302.946333708199	497.30293	-293.7774019493168	172.7759369505744	528.26834	-232.42488112371188	384.9355758650801	478.88705	-332.2718950391031	
